<mxfile host="app.diagrams.net" modified="2021-07-01T14:33:04.353Z" agent="5.0 (X11; Linux x86_64) AppleWebKit/537.36 (KHTML, like Gecko) Chrome/86.0.4240.75 Safari/537.36" etag="rZ8u9DZESpF9exwjxOKG" version="14.6.13" type="github">
  <diagram id="Ur-NI0DUak150NqOKbDg" name="Page-1">
    <mxGraphModel dx="1320" dy="476" grid="1" gridSize="10" guides="1" tooltips="1" connect="1" arrows="1" fold="1" page="1" pageScale="1" pageWidth="827" pageHeight="1169" math="0" shadow="0">
      <root>
        <mxCell id="0" />
        <mxCell id="1" parent="0" />
        <mxCell id="wz1ZwHjv4kJNvqeeByHG-1" value="Customers" style="ellipse;whiteSpace=wrap;html=1;aspect=fixed;" vertex="1" parent="1">
          <mxGeometry x="380" y="30" width="80" height="80" as="geometry" />
        </mxCell>
        <mxCell id="wz1ZwHjv4kJNvqeeByHG-2" value="On boarding" style="ellipse;whiteSpace=wrap;html=1;aspect=fixed;" vertex="1" parent="1">
          <mxGeometry x="300" y="150" width="80" height="80" as="geometry" />
        </mxCell>
        <mxCell id="wz1ZwHjv4kJNvqeeByHG-3" value="Autenticação" style="ellipse;whiteSpace=wrap;html=1;aspect=fixed;" vertex="1" parent="1">
          <mxGeometry x="470" y="170" width="80" height="80" as="geometry" />
        </mxCell>
        <mxCell id="wz1ZwHjv4kJNvqeeByHG-4" value="" style="endArrow=classic;html=1;" edge="1" parent="1" source="wz1ZwHjv4kJNvqeeByHG-1" target="wz1ZwHjv4kJNvqeeByHG-3">
          <mxGeometry relative="1" as="geometry">
            <mxPoint x="330" y="180" as="sourcePoint" />
            <mxPoint x="490" y="180" as="targetPoint" />
          </mxGeometry>
        </mxCell>
        <mxCell id="wz1ZwHjv4kJNvqeeByHG-7" value="" style="endArrow=classic;html=1;" edge="1" parent="1" source="wz1ZwHjv4kJNvqeeByHG-1" target="wz1ZwHjv4kJNvqeeByHG-2">
          <mxGeometry relative="1" as="geometry">
            <mxPoint x="370.00427124746216" y="130.00427124746213" as="sourcePoint" />
            <mxPoint x="433.4357287525379" y="193.43572875253787" as="targetPoint" />
          </mxGeometry>
        </mxCell>
        <mxCell id="wz1ZwHjv4kJNvqeeByHG-10" value="Usuário" style="ellipse;whiteSpace=wrap;html=1;aspect=fixed;" vertex="1" parent="1">
          <mxGeometry x="510" y="280" width="80" height="80" as="geometry" />
        </mxCell>
        <mxCell id="wz1ZwHjv4kJNvqeeByHG-11" value="" style="endArrow=classic;html=1;exitX=0.5;exitY=1;exitDx=0;exitDy=0;" edge="1" parent="1" source="wz1ZwHjv4kJNvqeeByHG-3" target="wz1ZwHjv4kJNvqeeByHG-10">
          <mxGeometry relative="1" as="geometry">
            <mxPoint x="458.28427124746213" y="108.28427124746213" as="sourcePoint" />
            <mxPoint x="521.7157287525379" y="171.71572875253787" as="targetPoint" />
          </mxGeometry>
        </mxCell>
        <mxCell id="wz1ZwHjv4kJNvqeeByHG-12" value="Aquisição de dados&amp;nbsp;&lt;br&gt;(KYC)" style="ellipse;whiteSpace=wrap;html=1;aspect=fixed;" vertex="1" parent="1">
          <mxGeometry x="190" y="270" width="80" height="80" as="geometry" />
        </mxCell>
        <mxCell id="wz1ZwHjv4kJNvqeeByHG-13" value="" style="endArrow=classic;html=1;" edge="1" parent="1" target="wz1ZwHjv4kJNvqeeByHG-12">
          <mxGeometry relative="1" as="geometry">
            <mxPoint x="320" y="220" as="sourcePoint" />
            <mxPoint x="372.1880078490092" y="166.71798822648634" as="targetPoint" />
          </mxGeometry>
        </mxCell>
        <mxCell id="wz1ZwHjv4kJNvqeeByHG-14" value="Inf. básicas" style="ellipse;whiteSpace=wrap;html=1;aspect=fixed;" vertex="1" parent="1">
          <mxGeometry x="20" y="445" width="80" height="80" as="geometry" />
        </mxCell>
        <mxCell id="wz1ZwHjv4kJNvqeeByHG-15" value="Inf. complementares" style="ellipse;whiteSpace=wrap;html=1;aspect=fixed;" vertex="1" parent="1">
          <mxGeometry x="160" y="440" width="90" height="90" as="geometry" />
        </mxCell>
        <mxCell id="wz1ZwHjv4kJNvqeeByHG-16" value="Documentos" style="ellipse;whiteSpace=wrap;html=1;aspect=fixed;" vertex="1" parent="1">
          <mxGeometry x="310" y="430" width="90" height="90" as="geometry" />
        </mxCell>
        <mxCell id="wz1ZwHjv4kJNvqeeByHG-17" value="" style="endArrow=classic;html=1;exitX=0;exitY=1;exitDx=0;exitDy=0;" edge="1" parent="1" source="wz1ZwHjv4kJNvqeeByHG-12" target="wz1ZwHjv4kJNvqeeByHG-14">
          <mxGeometry relative="1" as="geometry">
            <mxPoint x="550" y="240" as="sourcePoint" />
            <mxPoint x="555.5827389570063" y="290.24465061305636" as="targetPoint" />
          </mxGeometry>
        </mxCell>
        <mxCell id="wz1ZwHjv4kJNvqeeByHG-18" value="" style="endArrow=classic;html=1;" edge="1" parent="1">
          <mxGeometry relative="1" as="geometry">
            <mxPoint x="212" y="348" as="sourcePoint" />
            <mxPoint x="200" y="460" as="targetPoint" />
          </mxGeometry>
        </mxCell>
        <mxCell id="wz1ZwHjv4kJNvqeeByHG-19" value="" style="endArrow=classic;html=1;exitX=0.5;exitY=1;exitDx=0;exitDy=0;" edge="1" parent="1" source="wz1ZwHjv4kJNvqeeByHG-12" target="wz1ZwHjv4kJNvqeeByHG-16">
          <mxGeometry relative="1" as="geometry">
            <mxPoint x="221.7157287525381" y="358.2842712474619" as="sourcePoint" />
            <mxPoint x="128.8745607233609" y="447.3186029428937" as="targetPoint" />
          </mxGeometry>
        </mxCell>
        <mxCell id="wz1ZwHjv4kJNvqeeByHG-20" value="Dados do cliente&lt;br&gt;" style="ellipse;whiteSpace=wrap;html=1;aspect=fixed;" vertex="1" parent="1">
          <mxGeometry x="640" y="150" width="80" height="80" as="geometry" />
        </mxCell>
        <mxCell id="wz1ZwHjv4kJNvqeeByHG-21" value="" style="endArrow=classic;html=1;entryX=0;entryY=0;entryDx=0;entryDy=0;" edge="1" parent="1" source="wz1ZwHjv4kJNvqeeByHG-1" target="wz1ZwHjv4kJNvqeeByHG-20">
          <mxGeometry relative="1" as="geometry">
            <mxPoint x="458.28427124746213" y="108.28427124746213" as="sourcePoint" />
            <mxPoint x="521.7157287525379" y="171.71572875253787" as="targetPoint" />
          </mxGeometry>
        </mxCell>
        <mxCell id="wz1ZwHjv4kJNvqeeByHG-22" value="PF&lt;br&gt;" style="ellipse;whiteSpace=wrap;html=1;aspect=fixed;" vertex="1" parent="1">
          <mxGeometry x="750" y="280" width="80" height="80" as="geometry" />
        </mxCell>
        <mxCell id="wz1ZwHjv4kJNvqeeByHG-23" value="PJ" style="ellipse;whiteSpace=wrap;html=1;aspect=fixed;" vertex="1" parent="1">
          <mxGeometry x="630" y="280" width="80" height="80" as="geometry" />
        </mxCell>
        <mxCell id="wz1ZwHjv4kJNvqeeByHG-24" value="Operador" style="ellipse;whiteSpace=wrap;html=1;aspect=fixed;" vertex="1" parent="1">
          <mxGeometry x="570" y="415" width="80" height="80" as="geometry" />
        </mxCell>
        <mxCell id="wz1ZwHjv4kJNvqeeByHG-25" value="Master" style="ellipse;whiteSpace=wrap;html=1;aspect=fixed;" vertex="1" parent="1">
          <mxGeometry x="670" y="415" width="80" height="80" as="geometry" />
        </mxCell>
        <mxCell id="wz1ZwHjv4kJNvqeeByHG-26" value="" style="endArrow=classic;html=1;entryX=0;entryY=0;entryDx=0;entryDy=0;exitX=0.704;exitY=0.993;exitDx=0;exitDy=0;exitPerimeter=0;" edge="1" parent="1" source="wz1ZwHjv4kJNvqeeByHG-10" target="wz1ZwHjv4kJNvqeeByHG-24">
          <mxGeometry width="50" height="50" relative="1" as="geometry">
            <mxPoint x="390" y="380" as="sourcePoint" />
            <mxPoint x="440" y="330" as="targetPoint" />
          </mxGeometry>
        </mxCell>
        <mxCell id="wz1ZwHjv4kJNvqeeByHG-27" value="" style="endArrow=classic;html=1;entryX=0.675;entryY=0.013;entryDx=0;entryDy=0;entryPerimeter=0;" edge="1" parent="1" source="wz1ZwHjv4kJNvqeeByHG-23" target="wz1ZwHjv4kJNvqeeByHG-24">
          <mxGeometry width="50" height="50" relative="1" as="geometry">
            <mxPoint x="576.3199999999999" y="369.44000000000005" as="sourcePoint" />
            <mxPoint x="591.7157287525379" y="436.71572875253787" as="targetPoint" />
          </mxGeometry>
        </mxCell>
        <mxCell id="wz1ZwHjv4kJNvqeeByHG-28" value="" style="endArrow=classic;html=1;entryX=0;entryY=0;entryDx=0;entryDy=0;exitX=0.396;exitY=0.993;exitDx=0;exitDy=0;exitPerimeter=0;" edge="1" parent="1" source="wz1ZwHjv4kJNvqeeByHG-23" target="wz1ZwHjv4kJNvqeeByHG-25">
          <mxGeometry width="50" height="50" relative="1" as="geometry">
            <mxPoint x="662.7151927827799" y="366.07264114898135" as="sourcePoint" />
            <mxPoint x="634" y="426.03999999999996" as="targetPoint" />
          </mxGeometry>
        </mxCell>
        <mxCell id="wz1ZwHjv4kJNvqeeByHG-29" value="" style="endArrow=classic;html=1;exitX=0.286;exitY=0.954;exitDx=0;exitDy=0;exitPerimeter=0;entryX=0.404;entryY=0.014;entryDx=0;entryDy=0;entryPerimeter=0;" edge="1" parent="1" source="wz1ZwHjv4kJNvqeeByHG-20" target="wz1ZwHjv4kJNvqeeByHG-23">
          <mxGeometry relative="1" as="geometry">
            <mxPoint x="467.21633571267967" y="94.66098073529815" as="sourcePoint" />
            <mxPoint x="654" y="270" as="targetPoint" />
          </mxGeometry>
        </mxCell>
        <mxCell id="wz1ZwHjv4kJNvqeeByHG-30" value="" style="endArrow=classic;html=1;exitX=1;exitY=1;exitDx=0;exitDy=0;" edge="1" parent="1" source="wz1ZwHjv4kJNvqeeByHG-20">
          <mxGeometry relative="1" as="geometry">
            <mxPoint x="672.8800000000001" y="236.31999999999994" as="sourcePoint" />
            <mxPoint x="760" y="291" as="targetPoint" />
          </mxGeometry>
        </mxCell>
        <mxCell id="wz1ZwHjv4kJNvqeeByHG-34" value="Ativação de Conta" style="ellipse;whiteSpace=wrap;html=1;aspect=fixed;" vertex="1" parent="1">
          <mxGeometry x="360" y="270" width="80" height="80" as="geometry" />
        </mxCell>
        <mxCell id="wz1ZwHjv4kJNvqeeByHG-35" value="" style="endArrow=classic;html=1;entryX=0;entryY=0;entryDx=0;entryDy=0;" edge="1" parent="1" target="wz1ZwHjv4kJNvqeeByHG-34">
          <mxGeometry relative="1" as="geometry">
            <mxPoint x="330" y="230" as="sourcePoint" />
            <mxPoint x="268.28427124746213" y="291.71572875253787" as="targetPoint" />
          </mxGeometry>
        </mxCell>
      </root>
    </mxGraphModel>
  </diagram>
</mxfile>
